<?xml version="1.0" encoding="UTF-8" standalone="no"?>
<!DOCTYPE svg PUBLIC "-//W3C//DTD SVG 1.1//EN"
 "http://www.w3.org/Graphics/SVG/1.1/DTD/svg11.dtd">
<!-- Generated by graphviz version 12.2.1 (0)
 -->
<!-- Title: Release Pages: 1 -->
<svg width="444pt" height="249pt"
 viewBox="0.00 0.00 444.00 249.00" xmlns="http://www.w3.org/2000/svg" xmlns:xlink="http://www.w3.org/1999/xlink">
<g id="graph0" class="graph" transform="scale(1 1) rotate(0) translate(4 245)">
<title>Release</title>
<polygon fill="#fffdf7" stroke="none" points="-4,4 -4,-245 440,-245 440,4 -4,4"/>
<g id="clust1" class="cluster">
<title>cluster_release_yml</title>
<path fill="#fdf6e3" stroke="#eee8d5" d="M154,-80C154,-80 416,-80 416,-80 422,-80 428,-86 428,-92 428,-92 428,-221 428,-221 428,-227 422,-233 416,-233 416,-233 154,-233 154,-233 148,-233 142,-227 142,-221 142,-221 142,-92 142,-92 142,-86 148,-80 154,-80"/>
<text text-anchor="middle" x="285" y="-215.7" font-family="Times,serif" font-size="14.00">release.yml</text>
</g>
<g id="clust2" class="cluster">
<title>cluster_gcs</title>
<path fill="#fffdf7" stroke="#93a1a1" stroke-dasharray="5,2" d="M190,-8C190,-8 236,-8 236,-8 242,-8 248,-14 248,-20 248,-20 248,-48 248,-48 248,-54 242,-60 236,-60 236,-60 190,-60 190,-60 184,-60 178,-54 178,-48 178,-48 178,-20 178,-20 178,-14 184,-8 190,-8"/>
</g>
<g id="clust3" class="cluster">
<title>cluster_panic</title>
<path fill="#fffdf7" stroke="#93a1a1" stroke-dasharray="5,2" d="M20,-8C20,-8 122,-8 122,-8 128,-8 134,-14 134,-20 134,-20 134,-144.5 134,-144.5 134,-150.5 128,-156.5 122,-156.5 122,-156.5 20,-156.5 20,-156.5 14,-156.5 8,-150.5 8,-144.5 8,-144.5 8,-20 8,-20 8,-14 14,-8 20,-8"/>
<text text-anchor="middle" x="71" y="-139.2" font-family="Times,serif" font-size="14.00">panic.deno.com</text>
</g>
<!-- Deno -->
<g id="node1" class="node">
<title>Deno</title>
<polygon fill="#fdf6e3" stroke="black" points="204,-200.5 154,-200.5 150,-196.5 150,-164.5 200,-164.5 204,-168.5 204,-200.5"/>
<polyline fill="none" stroke="black" points="200,-196.5 150,-196.5"/>
<polyline fill="none" stroke="black" points="200,-196.5 200,-164.5"/>
<polyline fill="none" stroke="black" points="200,-196.5 204,-200.5"/>
<text text-anchor="middle" x="177" y="-179.57" font-family="monospace" font-size="9.00">deno</text>
</g>
<!-- symbolicate -->
<g id="node7" class="node">
<title>symbolicate</title>
<ellipse fill="#fdf6e3" stroke="black" cx="76" cy="-106" rx="49.85" ry="18"/>
<text text-anchor="middle" x="76" y="-103.08" font-family="monospace" font-size="9.00">symbolicate()</text>
</g>
<!-- Deno&#45;&gt;symbolicate -->
<g id="edge5" class="edge">
<title>Deno&#45;&gt;symbolicate</title>
<path fill="none" stroke="#657b83" d="M149.9,-164.65C145.87,-161.99 141.79,-159.22 138,-156.5 126.48,-148.25 114.21,-138.63 103.65,-130.09"/>
<polygon fill="#657b83" stroke="#657b83" points="106,-127.49 96.04,-123.87 101.57,-132.91 106,-127.49"/>
</g>
<!-- Pdb -->
<g id="node2" class="node">
<title>Pdb</title>
<polygon fill="#f9f9f9" stroke="black" points="276,-200.5 222,-200.5 222,-164.5 276,-164.5 276,-200.5"/>
<text text-anchor="middle" x="249" y="-179.57" font-family="monospace" font-size="9.00">.pdb</text>
</g>
<!-- Symcache -->
<g id="node5" class="node">
<title>Symcache</title>
<polygon fill="#eee8d5" stroke="black" points="314,-124 256,-124 256,-88 314,-88 314,-124"/>
<text text-anchor="middle" x="285" y="-103.08" font-family="monospace" font-size="9.00">symcache</text>
</g>
<!-- Pdb&#45;&gt;Symcache -->
<g id="edge1" class="edge">
<title>Pdb&#45;&gt;Symcache</title>
<path fill="none" stroke="#657b83" d="M257.35,-164.22C261.59,-155.45 266.85,-144.57 271.63,-134.67"/>
<polygon fill="#657b83" stroke="#657b83" points="274.71,-136.33 275.91,-125.81 268.41,-133.29 274.71,-136.33"/>
</g>
<!-- Dsym -->
<g id="node3" class="node">
<title>Dsym</title>
<polygon fill="#f9f9f9" stroke="black" points="348,-200.5 294,-200.5 294,-164.5 348,-164.5 348,-200.5"/>
<text text-anchor="middle" x="321" y="-179.57" font-family="monospace" font-size="9.00">.dSYM</text>
</g>
<!-- Dsym&#45;&gt;Symcache -->
<g id="edge2" class="edge">
<title>Dsym&#45;&gt;Symcache</title>
<path fill="none" stroke="#657b83" d="M312.65,-164.22C308.41,-155.45 303.15,-144.57 298.37,-134.67"/>
<polygon fill="#657b83" stroke="#657b83" points="301.59,-133.29 294.09,-125.81 295.29,-136.33 301.59,-133.29"/>
</g>
<!-- Elf -->
<g id="node4" class="node">
<title>Elf</title>
<polygon fill="#f9f9f9" stroke="black" points="420,-200.5 366,-200.5 366,-164.5 420,-164.5 420,-200.5"/>
<text text-anchor="middle" x="393" y="-179.57" font-family="monospace" font-size="9.00">.elf</text>
</g>
<!-- Elf&#45;&gt;Symcache -->
<g id="edge3" class="edge">
<title>Elf&#45;&gt;Symcache</title>
<path fill="none" stroke="#657b83" d="M367.68,-164.03C353.33,-154.13 335.16,-141.6 319.52,-130.81"/>
<polygon fill="#657b83" stroke="#657b83" points="321.63,-128.01 311.41,-125.22 317.65,-133.78 321.63,-128.01"/>
</g>
<!-- GCS -->
<g id="node6" class="node">
<title>GCS</title>
<polygon fill="#ffffff" stroke="black" points="240,-52 186,-52 186,-16 240,-16 240,-52"/>
<text text-anchor="middle" x="213" y="-31.07" font-family="monospace" font-size="9.00">gcs</text>
</g>
<!-- Symcache&#45;&gt;GCS -->
<g id="edge4" class="edge">
<title>Symcache&#45;&gt;GCS</title>
<path fill="none" stroke="#657b83" d="M267.2,-87.7C258.72,-79.45 248.41,-69.43 239.07,-60.35"/>
<polygon fill="#657b83" stroke="#657b83" points="241.54,-57.86 231.93,-53.4 236.66,-62.88 241.54,-57.86"/>
</g>
<!-- symbolicate&#45;&gt;GCS -->
<g id="edge6" class="edge">
<title>symbolicate&#45;&gt;GCS</title>
<path fill="none" stroke="#657b83" d="M114.09,-85.54C136.92,-73.87 165.39,-59.33 185.92,-48.84"/>
<polygon fill="#657b83" stroke="#657b83" points="112.71,-82.31 105.4,-89.98 115.9,-88.54 112.71,-82.31"/>
</g>
<!-- addrmap -->
<g id="node8" class="node">
<title>addrmap</title>
<path fill="#f9f9f9" stroke="black" d="M126.25,-48.73C126.25,-50.53 101.49,-52 71,-52 40.51,-52 15.75,-50.53 15.75,-48.73 15.75,-48.73 15.75,-19.27 15.75,-19.27 15.75,-17.47 40.51,-16 71,-16 101.49,-16 126.25,-17.47 126.25,-19.27 126.25,-19.27 126.25,-48.73 126.25,-48.73"/>
<path fill="none" stroke="black" d="M126.25,-48.73C126.25,-46.92 101.49,-45.45 71,-45.45 40.51,-45.45 15.75,-46.92 15.75,-48.73"/>
<text text-anchor="middle" x="71" y="-31.07" font-family="monospace" font-size="9.00">KV address mapping</text>
</g>
<!-- symbolicate&#45;&gt;addrmap -->
<g id="edge7" class="edge">
<title>symbolicate&#45;&gt;addrmap</title>
<path fill="none" stroke="#b58900" stroke-dasharray="5,2" d="M74.76,-87.7C74.24,-80.41 73.62,-71.73 73.04,-63.54"/>
<polygon fill="#b58900" stroke="#b58900" points="76.53,-63.34 72.33,-53.61 69.55,-63.84 76.53,-63.34"/>
</g>
</g>
</svg>
