<svg
  width="321"
  height="965"
  viewBox="0 0 321 965"
  fill="none"
  xmlns="http://www.w3.org/2000/svg"
>
  <g clip-path="url(#clip0_0_1)">
    <path
      d="M4.46822 24.6532C6.76881 25.0348 14.4336 25.8093 21.5897 24.659C26.748 23.8299 31.4279 23.1157 34.1215 21.9654C37.9828 16.9654 40.688 11.5665 41.4568 8.68209C41.8441 7.32371 42.2256 6.1792 42.6186 5"
      stroke="black"
      stroke-width="3"
      stroke-linecap="round"
    />
    <path
      d="M3.31215 36.214C5.99424 38.1331 12.1445 41.2082 17.9307 42.9539C26.0621 45.4071 33.3238 40.4683 39.1331 38.3412C44.2584 36.4644 49.1389 30.8498 55.8904 23.9076C59.9482 18.1214 62.6534 12.7226 63.4222 9.83817C63.8095 8.47978 64.191 7.33527 64.584 6.15607"
      stroke="black"
      stroke-width="3"
      stroke-linecap="round"
    />
    <path
      d="M26.4336 65.1158C23.0001 69.7054 13.7399 78.2026 9.10986 81.0985C7.948 81.6824 6.80349 82.0639 5.45088 82.2604C4.09828 82.4569 2.57226 82.4569 1 82.4569"
      stroke="black"
      stroke-width="3"
      stroke-linecap="round"
    />
    <path
      d="M47.2429 60.4915C46.8614 62.7921 42.2718 70.4569 38.7747 76.6592C35.6692 82.1671 27.266 90.8731 20.6706 95.3587C16.0405 97.8674 12.5723 99.0235 10.2659 99.7923C9.10408 100.18 7.95956 100.561 4.46822 100.954"
      stroke="black"
      stroke-width="3"
      stroke-linecap="round"
    />
    <path
      d="M61.1158 51.2429C60.7343 54.3065 59.1967 61.2314 56.6938 67.2141C54.5746 72.2797 52.6534 78.5725 49.7574 83.5957C47.1286 88.1554 44.1678 92.8385 39.5551 98.4281C35.6209 103.195 29.555 109.393 22.029 114.81C16.0405 119.058 10.6648 122.133 5.64164 125.029C4.47978 125.613 3.33527 125.995 1 127.544"
      stroke="black"
      stroke-width="3"
      stroke-linecap="round"
    />
    <path
      d="M63.428 60.4915C64.191 60.4915 66.4916 60.873 69.954 61.2603C75.2959 61.8578 78.8269 53.9713 82.8731 47.9886C86.0282 43.3236 87.3125 38.5493 88.8558 33.9192C89.6246 31.6128 90.0177 28.5261 89.6362 25.0637C89.2547 23.5087 88.4916 22.3642 87.5263 21.5839C86.561 20.8035 85.4165 20.422 83.0812 20.029"
      stroke="black"
      stroke-width="3"
      stroke-linecap="round"
    />
    <path
      d="M100.422 10.7804C100.804 13.081 102.341 18.4567 103.694 29.0232C106.661 52.1991 101.208 58.5262 96.9714 64.902C93.4125 70.2574 88.8847 73.5783 84.0639 76.8558C78.4685 80.5263 73.0927 82.0639 66.7343 83.4165C64.2372 83.613 60.4222 83.613 56.4915 83.613"
      stroke="black"
      stroke-width="3"
      stroke-linecap="round"
    />
    <path
      d="M43.7747 100.954C47.9828 100.954 57.2314 100.191 62.2546 96.3472C63.4164 95.1853 64.5609 94.0408 65.7228 93.0697C66.8846 92.0986 68.0291 91.3356 70.3644 88.2373"
      stroke="black"
      stroke-width="3"
      stroke-linecap="round"
    />
    <path
      d="M28.7458 118.295C34.8614 118.295 51.7979 117.532 60.6996 115.989C70.3982 114.307 74.9656 111.752 80.746 107.717C87.1511 103.246 87.3125 96.3529 88.6651 91.5321C89.2431 85.9367 90.3992 82.4685 90.9772 79.9714C91.1737 78.6188 91.1737 77.0927 91.1737 75.5205"
      stroke="black"
      stroke-width="3"
      stroke-linecap="round"
    />
    <path
      d="M14.8729 126.388C16.0174 128.307 21.3931 132.908 27.7515 137.353C42.4125 147.602 61.8557 141.047 66.8789 139.11C73.0128 136.746 80.746 133.717 85.376 130.642C91.3007 126.707 93.0928 120.63 96.746 115.041C99.827 110.327 101.185 105.602 102.729 99.8212C104.272 94.0292 105.047 81.7864 103.706 73.2257C103.128 72.0638 102.365 70.9193 100.422 68.584"
      stroke="black"
      stroke-width="3"
      stroke-linecap="round"
    />
    <path
      d="M110.827 50.0869C112.746 52.3875 116.584 57.0002 118.914 61.6303C121.024 65.8247 118.156 70.8731 116.422 75.5031C115.081 77.8095 113.151 79.3702 110.844 80.139C109.682 80.5263 108.538 80.9078 107.359 81.3009"
      stroke="black"
      stroke-width="3"
      stroke-linecap="round"
    />
    <path
      d="M108.515 37.3701C113.891 38.5261 120.052 39.2891 125.642 41.0233C130.837 42.635 134.318 46.5955 137.405 52.3759C140.416 58.0148 141.648 63.5436 143.001 69.139C144.774 76.475 140.122 81.2777 135.318 86.6766C131.363 91.122 125.879 93.2315 121.058 95.168C118.18 95.9367 115.463 96.7113 112.584 97.2894C110.85 97.4859 108.561 97.4859 106.203 97.4859"
      stroke="black"
      stroke-width="3"
      stroke-linecap="round"
    />
    <path
      d="M107.359 21.185C111.567 21.185 120.052 21.948 127.752 23.4914C134.002 24.7443 138.55 27.3353 143.561 30.9943C150.725 36.2249 152.816 41.9712 155.902 46.7921C159.44 52.3171 160.145 58.1563 161.688 62.7863C163.907 69.4423 163.613 78.9656 162.856 84.746C162.078 90.6892 159.775 95.1506 157.081 99.7807C154.324 104.521 148.238 108.63 143.214 112.313C139.107 115.323 133.972 116.746 129.342 118.289C124.461 119.916 118.943 120.214 111.434 120.798C109.682 120.989 108.538 121.37 106.232 121.567C103.925 121.763 100.492 121.763 96.9541 121.763"
      stroke="black"
      stroke-width="3"
      stroke-linecap="round"
    />
  </g>
  <path
    d="M2.15607 57.0233C6.75725 58.5609 13.6937 60.0985 20.0463 61.4511C28.5456 63.2608 34.1099 58.9655 43.5435 55.4973C52.9646 52.0337 58.3875 46.6418 64.5609 42.0117C71.7813 36.5964 77.6708 27.7746 83.4454 16.2197C84.6188 13.4971 85.0003 11.5896 85.3876 9.84395C85.7749 8.09828 86.1564 6.57226 86.5494 1.53178"
    stroke="black"
    stroke-width="3"
    stroke-linecap="round"
  />
  <path
    d="M100.422 13.0925C100.422 12.711 100.422 12.3295 100.232 11.5607C100.041 10.7919 99.6593 9.64742 99.272 8.48556C98.8847 7.32371 98.5032 6.17919 98.1102 2.68785"
    stroke="black"
    stroke-width="3"
    stroke-linecap="round"
  />
  <defs>
    <clipPath id="clip0_0_1">
      <rect width="320" height="960" fill="white" transform="translate(1 5)" />
    </clipPath>
  </defs>
</svg>
