<?xml version="1.0" encoding="UTF-8" standalone="no"?>
<!DOCTYPE svg PUBLIC "-//W3C//DTD SVG 1.1//EN"
 "http://www.w3.org/Graphics/SVG/1.1/DTD/svg11.dtd">
<!-- Generated by graphviz version 12.2.1 (0)
 -->
<!-- Title: StackWalk64 Pages: 1 -->
<svg width="252pt" height="582pt"
 viewBox="0.00 0.00 252.00 582.20" xmlns="http://www.w3.org/2000/svg" xmlns:xlink="http://www.w3.org/1999/xlink">
<g id="graph0" class="graph" transform="scale(1 1) rotate(0) translate(4 578.2)">
<title>StackWalk64</title>
<polygon fill="#fffdf7" stroke="none" points="-4,4 -4,-578.2 248,-578.2 248,4 -4,4"/>
<!-- frame4 -->
<g id="node1" class="node">
<title>frame4</title>
<polygon fill="#fdf6e3" stroke="black" points="77,-484.95 77,-573.7 165,-573.7 165,-484.95 77,-484.95"/>
<text text-anchor="middle" x="121" y="-562.1" font-family="monospace" font-size="8.00">0x0FFF0</text>
<polyline fill="none" stroke="black" points="77,-555.95 165,-555.95"/>
<text text-anchor="middle" x="121" y="-544.35" font-family="monospace" font-size="8.00">RIP=return to OS</text>
<polyline fill="none" stroke="black" points="77,-538.2 165,-538.2"/>
<text text-anchor="middle" x="121" y="-526.6" font-family="monospace" font-size="8.00">RSP=0x0FFE0</text>
<polyline fill="none" stroke="black" points="77,-520.45 165,-520.45"/>
<text text-anchor="middle" x="121" y="-508.85" font-family="monospace" font-size="8.00">RBP=0x0FFE8</text>
<polyline fill="none" stroke="black" points="77,-502.7 165,-502.7"/>
<text text-anchor="middle" x="121" y="-491.1" font-family="monospace" font-size="8.00">Frame: Main()</text>
</g>
<!-- cond -->
<g id="node5" class="node">
<title>cond</title>
<polygon fill="#ffffff" stroke="black" points="69,-447.45 25.18,-425.85 69,-404.25 112.82,-425.85 69,-447.45"/>
<text text-anchor="middle" x="69" y="-423.12" font-family="monospace" font-size="8.00">RIP == 0?</text>
</g>
<!-- frame4&#45;&gt;cond -->
<g id="edge5" class="edge">
<title>frame4&#45;&gt;cond</title>
<path fill="none" stroke="black" d="M98.65,-484.7C93.25,-474.16 87.63,-463.21 82.76,-453.7"/>
<polygon fill="black" stroke="black" points="85.99,-452.34 78.32,-445.03 79.76,-455.53 85.99,-452.34"/>
</g>
<!-- frame3 -->
<g id="node2" class="node">
<title>frame3</title>
<polygon fill="#eee8d5" stroke="black" points="75.75,-0.5 75.75,-89.25 186.25,-89.25 186.25,-0.5 75.75,-0.5"/>
<text text-anchor="middle" x="131" y="-77.65" font-family="monospace" font-size="8.00">0x0FFE0</text>
<polyline fill="none" stroke="black" points="75.75,-71.5 186.25,-71.5"/>
<text text-anchor="middle" x="131" y="-59.9" font-family="monospace" font-size="8.00">RIP=return to FuncA()</text>
<polyline fill="none" stroke="black" points="75.75,-53.75 186.25,-53.75"/>
<text text-anchor="middle" x="131" y="-42.15" font-family="monospace" font-size="8.00">RSP=0x0FFD0</text>
<polyline fill="none" stroke="black" points="75.75,-36 186.25,-36"/>
<text text-anchor="middle" x="131" y="-24.4" font-family="monospace" font-size="8.00">RBP=0x0FFD8</text>
<polyline fill="none" stroke="black" points="75.75,-18.25 186.25,-18.25"/>
<text text-anchor="middle" x="131" y="-6.65" font-family="monospace" font-size="8.00">Frame: FuncA()</text>
</g>
<!-- frame3&#45;&gt;frame4 -->
<g id="edge4" class="edge">
<title>frame3&#45;&gt;frame4</title>
<path fill="none" stroke="black" d="M158.8,-89.61C161.88,-95.56 164.72,-101.7 167,-107.75 178.34,-137.79 181,-146.52 181,-178.62 181,-426.85 181,-426.85 181,-426.85 181,-443.81 174.72,-460.42 166.21,-475.13"/>
<polygon fill="black" stroke="black" points="163.49,-472.89 161.15,-483.22 169.42,-476.6 163.49,-472.89"/>
<text text-anchor="middle" x="212.5" y="-312.23" font-family="monospace" font-size="7.00"> &#160;&#160;&#160;next frame</text>
</g>
<!-- frame2 -->
<g id="node3" class="node">
<title>frame2</title>
<polygon fill="#eee8d5" stroke="black" points="0,-135.25 0,-224 144,-224 144,-135.25 0,-135.25"/>
<text text-anchor="middle" x="72" y="-212.4" font-family="monospace" font-size="8.00">0x0FFD0</text>
<polyline fill="none" stroke="black" points="0,-206.25 144,-206.25"/>
<text text-anchor="middle" x="72" y="-194.65" font-family="monospace" font-size="8.00">RIP=return to StackTrace64()</text>
<polyline fill="none" stroke="black" points="0,-188.5 144,-188.5"/>
<text text-anchor="middle" x="72" y="-176.9" font-family="monospace" font-size="8.00">RSP=0x0FFC0</text>
<polyline fill="none" stroke="black" points="0,-170.75 144,-170.75"/>
<text text-anchor="middle" x="72" y="-159.15" font-family="monospace" font-size="8.00">RBP=0x0FFC8</text>
<polyline fill="none" stroke="black" points="0,-153 144,-153"/>
<text text-anchor="middle" x="72" y="-141.4" font-family="monospace" font-size="8.00">Frame: FuncB()</text>
</g>
<!-- frame2&#45;&gt;frame3 -->
<g id="edge3" class="edge">
<title>frame2&#45;&gt;frame3</title>
<path fill="none" stroke="black" d="M91.48,-134.79C96.42,-123.69 101.77,-111.63 106.91,-100.08"/>
<polygon fill="black" stroke="black" points="110.06,-101.61 110.92,-91.05 103.66,-98.76 110.06,-101.61"/>
<text text-anchor="middle" x="134.77" y="-110.1" font-family="monospace" font-size="7.00"> &#160;&#160;&#160;next frame</text>
</g>
<!-- frame1 -->
<g id="node4" class="node">
<title>frame1</title>
<polygon fill="#fdf6e3" stroke="black" points="13.75,-270 13.75,-358.75 124.25,-358.75 124.25,-270 13.75,-270"/>
<text text-anchor="middle" x="69" y="-347.15" font-family="monospace" font-size="8.00">0x0FFC0</text>
<polyline fill="none" stroke="black" points="13.75,-341 124.25,-341"/>
<text text-anchor="middle" x="69" y="-329.4" font-family="monospace" font-size="8.00">RIP=current</text>
<polyline fill="none" stroke="black" points="13.75,-323.25 124.25,-323.25"/>
<text text-anchor="middle" x="69" y="-311.65" font-family="monospace" font-size="8.00">RSP=0x0FFB0</text>
<polyline fill="none" stroke="black" points="13.75,-305.5 124.25,-305.5"/>
<text text-anchor="middle" x="69" y="-293.9" font-family="monospace" font-size="8.00">RBP=0x00FFB8</text>
<polyline fill="none" stroke="black" points="13.75,-287.75 124.25,-287.75"/>
<text text-anchor="middle" x="69" y="-276.15" font-family="monospace" font-size="8.00">Frame: StackTrace64()</text>
</g>
<!-- frame1&#45;&gt;frame2 -->
<g id="edge2" class="edge">
<title>frame1&#45;&gt;frame2</title>
<path fill="none" stroke="black" d="M63.6,-269.53C63.06,-260.59 62.9,-251.24 63.5,-242.5 63.65,-240.31 63.83,-238.08 64.03,-235.83"/>
<polygon fill="black" stroke="black" points="67.5,-236.31 65.06,-226 60.54,-235.58 67.5,-236.31"/>
<text text-anchor="middle" x="115.25" y="-244.85" font-family="monospace" font-size="7.00"> &#160;&#160;&#160;&#160;RtlVirtualUnwind()</text>
</g>
<!-- cond&#45;&gt;frame1 -->
<g id="edge6" class="edge">
<title>cond&#45;&gt;frame1</title>
<path fill="none" stroke="#b58900" stroke-dasharray="5,2" d="M69,-403.74C69,-394.14 69,-382.28 69,-370.4"/>
<polygon fill="#b58900" stroke="#b58900" points="72.5,-370.59 69,-360.59 65.5,-370.59 72.5,-370.59"/>
<text text-anchor="middle" x="78" y="-379.6" font-family="monospace" font-size="7.00"> &#160;no</text>
</g>
<!-- start -->
<g id="node6" class="node">
<title>start</title>
<ellipse fill="#222222" stroke="black" cx="138" cy="-425.85" rx="7.2" ry="7.2"/>
</g>
<!-- start&#45;&gt;frame1 -->
<g id="edge1" class="edge">
<title>start&#45;&gt;frame1</title>
<path fill="none" stroke="black" d="M134.48,-419.27C128.44,-409.68 115.49,-389.13 102.68,-368.82"/>
<polygon fill="black" stroke="black" points="105.74,-367.1 97.45,-360.51 99.82,-370.84 105.74,-367.1"/>
</g>
</g>
</svg>
