<?xml version="1.0" encoding="UTF-8" standalone="no"?>
<!DOCTYPE svg PUBLIC "-//W3C//DTD SVG 1.1//EN"
 "http://www.w3.org/Graphics/SVG/1.1/DTD/svg11.dtd">
<!-- Generated by graphviz version 12.2.1 (0)
 -->
<!-- Title: VLQStringBitsReal Pages: 1 -->
<svg width="308pt" height="81pt"
 viewBox="0.00 0.00 308.00 81.00" xmlns="http://www.w3.org/2000/svg" xmlns:xlink="http://www.w3.org/1999/xlink">
<g id="graph0" class="graph" transform="scale(1 1) rotate(0) translate(4 77)">
<title>VLQStringBitsReal</title>
<polygon fill="#fffdf7" stroke="none" points="-4,4 -4,-77 304,-77 304,4 -4,4"/>
<!-- buffer -->
<g id="node1" class="node">
<title>buffer</title>
<text text-anchor="start" x="30.25" y="-58.4" font-family="monospace" font-weight="bold" font-size="8.00" fill="#b58900">1</text>
<text text-anchor="start" x="77.25" y="-58.4" font-family="monospace" font-weight="bold" font-size="8.00" fill="#b58900">1</text>
<text text-anchor="start" x="124.25" y="-58.4" font-family="monospace" font-weight="bold" font-size="8.00" fill="#b58900">0</text>
<text text-anchor="start" x="171.25" y="-58.4" font-family="monospace" font-weight="bold" font-size="8.00" fill="#268bd2">1</text>
<text text-anchor="start" x="218.25" y="-58.4" font-family="monospace" font-weight="bold" font-size="8.00" fill="#268bd2">0</text>
<text text-anchor="start" x="265.25" y="-58.4" font-family="monospace" font-weight="bold" font-size="8.00" fill="#859900">0</text>
<text text-anchor="start" x="66" y="-42.65" font-family="monospace" font-weight="bold" font-size="8.00" fill="#b58900">Main()</text>
<text text-anchor="start" x="181.25" y="-42.65" font-family="monospace" font-weight="bold" font-size="8.00" fill="#268bd2">FuncA()</text>
<text text-anchor="start" x="251.75" y="-42.65" font-family="monospace" font-weight="bold" font-size="8.00" fill="#859900">FuncB()</text>
<polygon fill="#b58900" stroke="none" points="10,-21.75 10,-35.5 55,-35.5 55,-21.75 10,-21.75"/>
<text text-anchor="start" x="23.5" y="-25.9" font-family="monospace" font-size="8.00">0xC8</text>
<polygon fill="#b58900" stroke="none" points="57,-21.75 57,-35.5 102,-35.5 102,-21.75 57,-21.75"/>
<text text-anchor="start" x="70.5" y="-25.9" font-family="monospace" font-size="8.00">0x92</text>
<polygon fill="#b58900" stroke="none" points="104,-21.75 104,-35.5 149,-35.5 149,-21.75 104,-21.75"/>
<text text-anchor="start" x="117.5" y="-25.9" font-family="monospace" font-size="8.00">0x34</text>
<polygon fill="#268bd2" stroke="none" points="151,-21.75 151,-35.5 196,-35.5 196,-21.75 151,-21.75"/>
<text text-anchor="start" x="164.5" y="-25.9" font-family="monospace" font-size="8.00">0xF8</text>
<polygon fill="#268bd2" stroke="none" points="198,-21.75 198,-35.5 243,-35.5 243,-21.75 198,-21.75"/>
<text text-anchor="start" x="211.5" y="-25.9" font-family="monospace" font-size="8.00">0x01</text>
<polygon fill="#859900" stroke="none" points="245,-21.75 245,-35.5 290,-35.5 290,-21.75 245,-21.75"/>
<text text-anchor="start" x="258.5" y="-25.9" font-family="monospace" font-size="8.00">0x4A</text>
<text text-anchor="start" x="61.5" y="-10.15" font-family="monospace" font-size="8.00" fill="#b58900">0x001234</text>
<text text-anchor="start" x="179" y="-10.15" font-family="monospace" font-size="8.00" fill="#268bd2">0x0000F8</text>
<text text-anchor="start" x="249.5" y="-10.15" font-family="monospace" font-size="8.00" fill="#859900">0x00004A</text>
</g>
</g>
</svg>
